<mxfile host="app.diagrams.net" modified="2021-02-09T07:48:56.318Z" agent="5.0 (Macintosh; Intel Mac OS X 11_0_1) AppleWebKit/537.36 (KHTML, like Gecko) Chrome/88.0.4324.146 Safari/537.36" etag="h7uU--aFmWjBIwiF51Tf" version="14.3.0" type="github">
  <diagram id="kgpKYQtTHZ0yAKxKKP6v" name="Page-1">
    <mxGraphModel dx="774" dy="436" grid="1" gridSize="10" guides="1" tooltips="1" connect="1" arrows="1" fold="1" page="1" pageScale="1" pageWidth="850" pageHeight="1100" math="0" shadow="0">
      <root>
        <mxCell id="0" />
        <mxCell id="1" parent="0" />
        <mxCell id="3nuBFxr9cyL0pnOWT2aG-1" value="合作平台" style="shape=umlLifeline;perimeter=lifelinePerimeter;container=1;collapsible=0;recursiveResize=0;rounded=0;shadow=0;strokeWidth=1;" parent="1" vertex="1">
          <mxGeometry x="120" y="80" width="100" height="650" as="geometry" />
        </mxCell>
        <mxCell id="3nuBFxr9cyL0pnOWT2aG-2" value="" style="points=[];perimeter=orthogonalPerimeter;rounded=0;shadow=0;strokeWidth=1;" parent="3nuBFxr9cyL0pnOWT2aG-1" vertex="1">
          <mxGeometry x="40" y="70" width="10" height="90" as="geometry" />
        </mxCell>
        <mxCell id="3nuBFxr9cyL0pnOWT2aG-5" value="乐益通积分系统" style="shape=umlLifeline;perimeter=lifelinePerimeter;container=1;collapsible=0;recursiveResize=0;rounded=0;shadow=0;strokeWidth=1;" parent="1" vertex="1">
          <mxGeometry x="460" y="80" width="100" height="650" as="geometry" />
        </mxCell>
        <mxCell id="3nuBFxr9cyL0pnOWT2aG-6" value="" style="points=[];perimeter=orthogonalPerimeter;rounded=0;shadow=0;strokeWidth=1;" parent="3nuBFxr9cyL0pnOWT2aG-5" vertex="1">
          <mxGeometry x="45" y="70" width="10" height="90" as="geometry" />
        </mxCell>
        <mxCell id="YAWMEllJm0a7ECIVswKw-7" value="" style="points=[];perimeter=orthogonalPerimeter;rounded=0;shadow=0;strokeWidth=1;" vertex="1" parent="3nuBFxr9cyL0pnOWT2aG-5">
          <mxGeometry x="45" y="200" width="10" height="100" as="geometry" />
        </mxCell>
        <mxCell id="YAWMEllJm0a7ECIVswKw-12" value="" style="points=[];perimeter=orthogonalPerimeter;rounded=0;shadow=0;strokeWidth=1;" vertex="1" parent="3nuBFxr9cyL0pnOWT2aG-5">
          <mxGeometry x="45" y="340" width="10" height="100" as="geometry" />
        </mxCell>
        <mxCell id="3nuBFxr9cyL0pnOWT2aG-8" value="账户信息查询（/account/cards）" style="verticalAlign=bottom;endArrow=block;shadow=0;strokeWidth=1;" parent="1" source="3nuBFxr9cyL0pnOWT2aG-2" target="3nuBFxr9cyL0pnOWT2aG-5" edge="1">
          <mxGeometry x="0.0015" y="10" relative="1" as="geometry">
            <mxPoint x="275" y="160" as="sourcePoint" />
            <Array as="points">
              <mxPoint x="360" y="190" />
              <mxPoint x="400" y="190" />
            </Array>
            <mxPoint as="offset" />
          </mxGeometry>
        </mxCell>
        <mxCell id="3nuBFxr9cyL0pnOWT2aG-9" value="账户信息" style="verticalAlign=bottom;endArrow=block;shadow=0;strokeWidth=1;" parent="1" source="3nuBFxr9cyL0pnOWT2aG-6" target="3nuBFxr9cyL0pnOWT2aG-2" edge="1">
          <mxGeometry x="-0.0119" relative="1" as="geometry">
            <mxPoint x="240" y="200" as="sourcePoint" />
            <mxPoint x="180" y="200" as="targetPoint" />
            <Array as="points">
              <mxPoint x="480" y="220" />
              <mxPoint x="450" y="220" />
              <mxPoint x="400" y="220" />
              <mxPoint x="390" y="220" />
              <mxPoint x="360" y="220" />
              <mxPoint x="350" y="220" />
              <mxPoint x="290" y="220" />
            </Array>
            <mxPoint as="offset" />
          </mxGeometry>
        </mxCell>
        <mxCell id="YAWMEllJm0a7ECIVswKw-5" value="交易记录查询（/account/orders）" style="verticalAlign=bottom;endArrow=block;entryX=0;entryY=0;shadow=0;strokeWidth=1;" edge="1" parent="1">
          <mxGeometry x="-0.1045" y="10" relative="1" as="geometry">
            <mxPoint x="170" y="310.0000000000001" as="sourcePoint" />
            <mxPoint x="505" y="310.0000000000001" as="targetPoint" />
            <mxPoint as="offset" />
          </mxGeometry>
        </mxCell>
        <mxCell id="YAWMEllJm0a7ECIVswKw-6" value="" style="points=[];perimeter=orthogonalPerimeter;rounded=0;shadow=0;strokeWidth=1;" vertex="1" parent="1">
          <mxGeometry x="160" y="280" width="10" height="100" as="geometry" />
        </mxCell>
        <mxCell id="YAWMEllJm0a7ECIVswKw-8" value="账户交易记录列表" style="verticalAlign=bottom;endArrow=block;shadow=0;strokeWidth=1;" edge="1" parent="1">
          <mxGeometry x="0.2239" y="-10" relative="1" as="geometry">
            <mxPoint x="505" y="360" as="sourcePoint" />
            <mxPoint x="170" y="360" as="targetPoint" />
            <Array as="points">
              <mxPoint x="480" y="360" />
              <mxPoint x="400" y="360" />
              <mxPoint x="390" y="360" />
              <mxPoint x="360" y="360" />
              <mxPoint x="290" y="360" />
            </Array>
            <mxPoint as="offset" />
          </mxGeometry>
        </mxCell>
        <mxCell id="YAWMEllJm0a7ECIVswKw-13" value="静默登录Token（/account/access-tokens）" style="verticalAlign=bottom;endArrow=block;entryX=0;entryY=0;shadow=0;strokeWidth=1;" edge="1" parent="1">
          <mxGeometry x="-0.1045" y="10" relative="1" as="geometry">
            <mxPoint x="170" y="580.0000000000001" as="sourcePoint" />
            <mxPoint x="505" y="580.0000000000001" as="targetPoint" />
            <mxPoint as="offset" />
          </mxGeometry>
        </mxCell>
        <mxCell id="YAWMEllJm0a7ECIVswKw-14" value="" style="points=[];perimeter=orthogonalPerimeter;rounded=0;shadow=0;strokeWidth=1;" vertex="1" parent="1">
          <mxGeometry x="160" y="420" width="10" height="100" as="geometry" />
        </mxCell>
        <mxCell id="YAWMEllJm0a7ECIVswKw-15" value="账户交易（转赠）结果" style="verticalAlign=bottom;endArrow=block;shadow=0;strokeWidth=1;" edge="1" parent="1">
          <mxGeometry x="0.1642" y="-10" relative="1" as="geometry">
            <mxPoint x="505" y="500" as="sourcePoint" />
            <mxPoint x="170" y="500" as="targetPoint" />
            <Array as="points">
              <mxPoint x="480" y="500" />
              <mxPoint x="450" y="500" />
              <mxPoint x="400" y="500" />
              <mxPoint x="390" y="500" />
              <mxPoint x="360" y="500" />
              <mxPoint x="290" y="500" />
            </Array>
            <mxPoint as="offset" />
          </mxGeometry>
        </mxCell>
        <mxCell id="YAWMEllJm0a7ECIVswKw-20" value="" style="points=[];perimeter=orthogonalPerimeter;rounded=0;shadow=0;strokeWidth=1;" vertex="1" parent="1">
          <mxGeometry x="160" y="550" width="10" height="100" as="geometry" />
        </mxCell>
        <mxCell id="YAWMEllJm0a7ECIVswKw-21" value="" style="points=[];perimeter=orthogonalPerimeter;rounded=0;shadow=0;strokeWidth=1;" vertex="1" parent="1">
          <mxGeometry x="505" y="550" width="10" height="100" as="geometry" />
        </mxCell>
        <mxCell id="YAWMEllJm0a7ECIVswKw-22" value="跳转所需参数" style="verticalAlign=bottom;endArrow=block;shadow=0;strokeWidth=1;" edge="1" parent="1">
          <mxGeometry x="0.1642" y="-10" relative="1" as="geometry">
            <mxPoint x="505" y="630.0000000000001" as="sourcePoint" />
            <mxPoint x="170" y="630.0000000000001" as="targetPoint" />
            <Array as="points">
              <mxPoint x="480" y="630" />
              <mxPoint x="450" y="630" />
              <mxPoint x="400" y="630" />
              <mxPoint x="390" y="630" />
              <mxPoint x="360" y="630" />
              <mxPoint x="290" y="630" />
            </Array>
            <mxPoint as="offset" />
          </mxGeometry>
        </mxCell>
        <mxCell id="YAWMEllJm0a7ECIVswKw-23" value="充积分（/account/orders/transfer）" style="verticalAlign=bottom;endArrow=block;entryX=0;entryY=0;shadow=0;strokeWidth=1;" edge="1" parent="1">
          <mxGeometry x="-0.1642" y="10" relative="1" as="geometry">
            <mxPoint x="170" y="450.0000000000001" as="sourcePoint" />
            <mxPoint x="505" y="450.0000000000001" as="targetPoint" />
            <mxPoint as="offset" />
          </mxGeometry>
        </mxCell>
        <mxCell id="YAWMEllJm0a7ECIVswKw-24" value="" style="points=[];perimeter=orthogonalPerimeter;rounded=0;shadow=0;strokeWidth=1;" vertex="1" parent="1">
          <mxGeometry x="150" y="610" width="10" height="40" as="geometry" />
        </mxCell>
        <mxCell id="YAWMEllJm0a7ECIVswKw-25" value="&lt;font style=&quot;vertical-align: inherit&quot;&gt;&lt;font style=&quot;vertical-align: inherit&quot;&gt;&lt;font style=&quot;vertical-align: inherit&quot;&gt;&lt;font style=&quot;vertical-align: inherit&quot;&gt;&lt;font style=&quot;vertical-align: inherit&quot;&gt;&lt;font style=&quot;vertical-align: inherit&quot;&gt;跳转积分管理H5链接（相应跳转参数）&lt;/font&gt;&lt;/font&gt;&lt;/font&gt;&lt;/font&gt;&lt;/font&gt;&lt;/font&gt;" style="endArrow=classic;html=1;entryX=0.5;entryY=0.923;entryDx=0;entryDy=0;entryPerimeter=0;fontFamily=Helvetica;" edge="1" parent="1" target="3nuBFxr9cyL0pnOWT2aG-5">
          <mxGeometry width="50" height="50" relative="1" as="geometry">
            <mxPoint x="150" y="630" as="sourcePoint" />
            <mxPoint x="100" y="690" as="targetPoint" />
            <Array as="points">
              <mxPoint x="130" y="630" />
              <mxPoint x="130" y="680" />
              <mxPoint x="320" y="680" />
            </Array>
          </mxGeometry>
        </mxCell>
        <mxCell id="3nuBFxr9cyL0pnOWT2aG-3" value="用户" style="verticalAlign=bottom;startArrow=oval;endArrow=block;startSize=8;shadow=0;strokeWidth=1;" parent="1" edge="1">
          <mxGeometry y="-5" relative="1" as="geometry">
            <mxPoint x="50" y="375" as="sourcePoint" />
            <mxPoint x="110" y="375" as="targetPoint" />
            <mxPoint as="offset" />
          </mxGeometry>
        </mxCell>
        <mxCell id="YAWMEllJm0a7ECIVswKw-27" value="积分公户" style="points=[];perimeter=orthogonalPerimeter;rounded=0;shadow=0;strokeWidth=1;labelPosition=right;verticalLabelPosition=bottom;align=left;verticalAlign=top;direction=south;" vertex="1" parent="1">
          <mxGeometry x="515" y="435" width="15" height="70" as="geometry" />
        </mxCell>
        <mxCell id="YAWMEllJm0a7ECIVswKw-28" value="积分公户" style="points=[];perimeter=orthogonalPerimeter;rounded=0;shadow=0;strokeWidth=1;labelPosition=right;verticalLabelPosition=bottom;align=left;verticalAlign=top;direction=south;" vertex="1" parent="1">
          <mxGeometry x="515" y="160" width="15" height="70" as="geometry" />
        </mxCell>
      </root>
    </mxGraphModel>
  </diagram>
</mxfile>
